# xmcd
#
# Track frame offsets: 
#        182
#        16157
#        37000
#
# Disc length: 964 seconds
#
# Revision: 1
# Processed by: cddbd v1.5.2PL0 Copyright (c) Steve Scherf et al.
# Submitted via: ExactAudioCopy v1.3
#
DISCID=1a03c203
DTITLE=Kim Appleby - Don't Worry
DYEAR=1990
DGENRE=Pop
TTITLE0=Don't Worry
TTITLE1=Don't Worry (The Phill Chill Mix)
TTITLE2=Don't Worry (The Stressed Out Mix)
EXTD=
EXTT0=
EXTT1=
EXTT2=
PLAYORDER=
